<svg id="Layer_1" data-name="Layer 1" xmlns="http://www.w3.org/2000/svg" viewBox="0 0 129.07 50"><defs><style>.cls-1{isolation:isolate}.cls-2{fill:#fff}.cls-3{fill:#2ab9e7}.cls-4{fill:#1b354c}</style></defs><title>silverhub-logo</title><g id="Hub" class="cls-1"><path class="cls-2" d="M101 11.95h.82v5.18h6.31v-5.18h.82v11.8h-.85v-5.91h-6.31v5.91H101v-11.8zM112.28 15.15h.79v5.41c0 1.83.59 2.69 2 2.69 1 0 1.76-.54 2.78-1.76v-6.34h.79v8.6h-.68l-.07-1.43h-.09a3.81 3.81 0 0 1-2.92 1.69c-1.77 0-2.6-1.07-2.6-3.3v-5.56zM121.9 10.87h.79v5.41a4.91 4.91 0 0 1 3-1.34c2.29 0 3.44 1.72 3.44 4.39 0 2.92-1.77 4.64-3.8 4.64a4.45 4.45 0 0 1-2.58-1l-.09.81h-.76V10.87zm3.33 12.4c1.74 0 3-1.61 3-3.94 0-2.11-.75-3.69-2.72-3.69a4.51 4.51 0 0 0-2.82 1.37v5.11a4.13 4.13 0 0 0 2.54 1.15z"/></g><path id="Silver" class="cls-2" d="M63.43 20.34a1.14 1.14 0 0 0-.43-.91 4.61 4.61 0 0 0-1-.64c-.42-.19-.87-.39-1.36-.6a7 7 0 0 1-1.36-.75 3.87 3.87 0 0 1-1-1.11 3.16 3.16 0 0 1-.42-1.7 3.7 3.7 0 0 1 .3-1.55 2.92 2.92 0 0 1 .86-1.1 3.71 3.71 0 0 1 1.32-.65 6.38 6.38 0 0 1 1.7-.21 10.85 10.85 0 0 1 2 .18 5.21 5.21 0 0 1 1.57.54l-.76 2a4.32 4.32 0 0 0-1.16-.44 6.73 6.73 0 0 0-1.69-.19 2.17 2.17 0 0 0-1.3.33 1.06 1.06 0 0 0-.45.89 1.1 1.1 0 0 0 .42.88 4.79 4.79 0 0 0 1 .65l1.33.62a7.35 7.35 0 0 1 1.36.76 3.94 3.94 0 0 1 1 1.1 3 3 0 0 1 .42 1.64 4 4 0 0 1-.33 1.69 3.22 3.22 0 0 1-.92 1.18 3.88 3.88 0 0 1-1.43.7 7.08 7.08 0 0 1-1.85.23 10 10 0 0 1-2.25-.25 7.25 7.25 0 0 1-1.49-.49l.78-2a4.66 4.66 0 0 0 .5.23 6.55 6.55 0 0 0 .7.23 7.92 7.92 0 0 0 .82.18 5.59 5.59 0 0 0 .89.07 3.13 3.13 0 0 0 1.65-.36 1.2 1.2 0 0 0 .58-1.15zm3.47-7.94a1.15 1.15 0 0 1 .38-.87 1.48 1.48 0 0 1 1.05-.36 1.61 1.61 0 0 1 1.09.36 1.11 1.11 0 0 1 .42.87 1.05 1.05 0 0 1-.42.85 1.65 1.65 0 0 1-1.09.34 1.52 1.52 0 0 1-1.05-.34 1.09 1.09 0 0 1-.38-.85zm.34 2.47h2.3v8.76h-2.3v-8.76zm6.4 5.82a1.9 1.9 0 0 0 .16.89.55.55 0 0 0 .51.28 2.38 2.38 0 0 0 .41 0 2.44 2.44 0 0 0 .5-.16l.25 1.79a4.34 4.34 0 0 1-.87.28 5.14 5.14 0 0 1-1.2.14 2.27 2.27 0 0 1-1.54-.46 1.94 1.94 0 0 1-.53-1.53V11.37h2.3v9.32zm5.6-1.23l.3 1.35h.09l.25-1.38 1.5-4.55h2.48l-3.7 8.85h-1.4l-3.84-8.85h2.67zm12.35 3.42a4.52 4.52 0 0 1-1.44.71 6.37 6.37 0 0 1-1.94.29 3.77 3.77 0 0 1-3.13-1.23 5.28 5.28 0 0 1-1-3.39 4.82 4.82 0 0 1 1.11-3.47 4.14 4.14 0 0 1 3.13-1.16 4.91 4.91 0 0 1 1.31.18 3.05 3.05 0 0 1 1.13.58 2.85 2.85 0 0 1 .8 1.09 4.23 4.23 0 0 1 .3 1.7 7.57 7.57 0 0 1 0 .79c0 .28-.07.57-.13.88h-5.32A2.55 2.55 0 0 0 87 21.5a2.2 2.2 0 0 0 1.68.56 3.77 3.77 0 0 0 2.17-.67zm-3.28-6.43a1.61 1.61 0 0 0-1.31.56 2.64 2.64 0 0 0-.52 1.43h3.27a2.2 2.2 0 0 0-.31-1.43 1.3 1.3 0 0 0-1.14-.51zm9.94.56a3 3 0 0 0-1-.19 1.64 1.64 0 0 0-1 .32 1.56 1.56 0 0 0-.55.83v5.66h-2.3v-8.76h1.79l.23 1.14h.07a2.4 2.4 0 0 1 .81-1 2.08 2.08 0 0 1 1.2-.35 3.36 3.36 0 0 1 1 .19z"/><g id="Intranet" class="cls-1"><path class="cls-3" d="M58.64 30.43h.63v7.4h-.63v-7.4zM61.75 31.48v6.36h-.63v-7.4h.64l4.64 6.27v-6.28h.6v7.4h-.59zM70.76 31.01h-2.42v-.58h5.48v.58H71.4v6.82h-.64v-6.82zM77.39 34.77h-1.63v3.06h-.63v-7.4h2.76a2.1 2.1 0 0 1 2.25 2.16 2 2 0 0 1-2.05 2.13l2.14 3.11h-.76zm.45-3.76h-2.08v3.18h2.08a1.59 1.59 0 1 0 0-3.18zM86.35 36.01h-3.92l-.73 1.82H81l3-7.4h.79l3 7.4h-.71zm-3.71-.58h3.49l-1.75-4.32zM89.53 31.48v6.36h-.63v-7.4h.64l4.64 6.27v-6.28h.63v7.4h-.62zM96.66 30.43h4.69v.58h-4.06v2.74h4v.58h-4v2.93h4.06v.58h-4.69v-7.4zM104.8 31.01h-2.42v-.58h5.48v.58h-2.42v6.82h-.64v-6.82z"/></g><g><path class="cls-3" d="M41.79 10.12l-16-9.25a6.5 6.5 0 0 0-6.5 0l-16 9.25A6.5 6.5 0 0 0 0 15.75v18.5a6.5 6.5 0 0 0 3.25 5.63l16 9.25a6.5 6.5 0 0 0 6.5 0l16-9.25A6.5 6.5 0 0 0 45 34.25v-18.5a6.5 6.5 0 0 0-3.21-5.63z"/><path class="cls-4" d="M36.31 30.68a3.44 3.44 0 0 0-2.08.71l-6-3.45a5.62 5.62 0 0 0-.3-5l6.53-3.64a3.53 3.53 0 1 0-.46-.65l-6.54 3.64a5.65 5.65 0 0 0-3.66-2.12v-6.85a3.37 3.37 0 1 0-.84.1v6.68a5.64 5.64 0 0 0-4.47 2.26l-6.74-3.86a3.33 3.33 0 0 0 .32-1.41 3.48 3.48 0 1 0-.76 2.11L18 23.01a5.6 5.6 0 0 0-.34 4.66l-6.41 3.57a3.48 3.48 0 0 0-2.66-1.23 3.4 3.4 0 1 0 3.47 3.4 3.31 3.31 0 0 0-.33-1.4L18 28.46a5.66 5.66 0 0 0 4.92 2.95v5.8a3.45 3.45 0 0 0-3.35 3.5v.14a3.51 3.51 0 0 0 3.5 3.36h.15a3.5 3.5 0 0 0 .54-6.93v-5.94a5.65 5.65 0 0 0 4-2.68l5.86 3.35a3.44 3.44 0 0 0-.79 2.17 3.47 3.47 0 1 0 3.48-3.5zm.75-15.56a2 2 0 1 1-2 2 2 2 0 0 1 2-2zM8.59 19.01a1.91 1.91 0 1 1 2-1.91 1.94 1.94 0 0 1-2 1.91zm0 16.3a1.9 1.9 0 1 1 2-1.9 1.93 1.93 0 0 1-2 1.88zm12.52-25.3a1.88 1.88 0 1 1 1.89 1.9 1.89 1.89 0 0 1-1.89-1.9zm4 30.6a2.002 2.002 0 0 1-4 .17v-.1a1.94 1.94 0 0 1 1.9-2h.1a2 2 0 0 1 1.99 1.95zM23 29.9a4.15 4.15 0 1 1 4.15-4.15A4.15 4.15 0 0 1 23 29.9zm13.32 6.22a2 2 0 1 1 2-2 2 2 0 0 1-2.01 2z"/></g></svg>