<svg xmlns="http://www.w3.org/2000/svg" xmlns:xlink="http://www.w3.org/1999/xlink" width="380" height="116" viewBox="0 0 380 116"><svg width="28" height="28" viewBox="0 0 28 28"><path fill="#fff" d="M22.96 12.6H5.04c-.773 0-.84.626-.84 1.4s.067 1.4.84 1.4h17.92c.773 0 .84-.626.84-1.4s-.067-1.4-.84-1.4zm0 5.6H5.04c-.773 0-.84.626-.84 1.4s.067 1.4.84 1.4h17.92c.773 0 .84-.626.84-1.4s-.067-1.4-.84-1.4zM5.04 9.8h17.92c.773 0 .84-.626.84-1.4S23.733 7 22.96 7H5.04c-.773 0-.84.626-.84 1.4s.067 1.4.84 1.4z"/></svg><svg width="28" height="28" viewBox="0 0 28 28" y="44"><path fill="#fff" d="M14 2.625c-3.038 0-5.895 1.183-8.043 3.332S2.625 10.962 2.625 14c0 3.038 1.183 5.895 3.332 8.043s5.005 3.332 8.043 3.332c3.038 0 5.895-1.183 8.043-3.332s3.332-5.005 3.332-8.043c0-3.038-1.183-5.895-3.332-8.043S17.038 2.625 14 2.625zM14 0c7.732 0 14 6.268 14 14s-6.268 14-14 14S0 21.732 0 14 6.268 0 14 0zm-1.75 19.25h3.5v3.5h-3.5zm0-14h3.5v10.5h-3.5z"/></svg><svg width="26" height="28" viewBox="0 0 26 28" y="88"><path fill="#a9a9a9" d="M18 13q0-2.89-2.055-4.945T11 6 6.055 8.055 4 13t2.055 4.945T11 20t4.945-2.055T18 13zm8 13q0 .812-.594 1.406T24 28q-.844 0-1.406-.594l-5.36-5.344Q14.44 24 11.002 24q-2.233 0-4.272-.868t-3.516-2.344-2.344-3.516T0 13 .87 8.725 3.212 5.21t3.516-2.344T11 2t4.274.866T18.79 5.21t2.344 3.516T22 13q0 3.436-1.936 6.233l5.36 5.36q.577.577.577 1.405z"/></svg><svg width="28" height="28" viewBox="0 0 28 28" x="44" y="88"><path fill="#a9a9a9" d="M26.297 12.625L14.703 24.203q-.297.297-.703.297t-.703-.297L1.703 12.625q-.297-.297-.297-.71t.297-.712l2.594-2.578q.297-.297.703-.297t.703.297L14 16.922l8.297-8.297q.297-.297.703-.297t.703.297l2.594 2.578q.297.297.297.71t-.297.712z"/></svg><svg width="24" height="28" viewBox="0 0 24 28" x="88" y="88"><path fill="#a9a9a9" d="M3.703 22.094h3.61V11.25h-3.61v10.844zM7.547 7.906q-.016-.812-.562-1.344t-1.453-.53-1.477.53-.57 1.344q0 .797.555 1.336t1.445.54H5.5q.923 0 1.485-.54t.562-1.336zm9.14 14.188h3.61v-6.22q0-2.405-1.14-3.64T16.14 11q-2.125 0-3.266 1.828h.03V11.25H9.297q.047 1.03 0 10.844h3.61v-6.062q0-.594.108-.875.234-.547.703-.93t1.156-.383q1.813 0 1.813 2.453v5.797zM24 6.5v15q0 1.86-1.32 3.18T19.5 26h-15q-1.86 0-3.18-1.32T0 21.5v-15q0-1.86 1.32-3.18T4.5 2h15q1.86 0 3.18 1.32T24 6.5z"/></svg><svg width="26" height="28" viewBox="0 0 26 28" x="132" y="88"><path fill="#a9a9a9" d="M25.312 6.375q-1.047 1.53-2.53 2.61.015.218.015.655 0 2.03-.594 4.055t-1.805 3.883-2.883 3.29-4.03 2.28T8.436 24q-4.234 0-7.75-2.266.547.063 1.22.063 3.515 0 6.265-2.156-1.64-.03-2.938-1.007t-1.78-2.492q.515.08.952.08.672 0 1.328-.173-1.75-.36-2.898-1.742t-1.148-3.21v-.064q1.062.595 2.28.642-1.03-.688-1.64-1.797t-.61-2.406q0-1.376.69-2.548 1.89 2.328 4.6 3.727t5.806 1.554q-.125-.594-.125-1.156 0-2.094 1.476-3.57T17.736 4q2.188 0 3.687 1.595 1.703-.328 3.203-1.22-.578 1.798-2.22 2.782 1.454-.156 2.907-.78z"/></svg><svg width="16" height="28" viewBox="0 0 16 28" x="176" y="88"><path fill="#a9a9a9" d="M14.984.187v4.125H12.53q-1.343 0-1.812.562t-.47 1.687v2.954h4.58l-.61 4.625h-3.97v11.858H5.47v-11.86H1.484V9.515h3.984V6.108q0-2.906 1.625-4.508T11.42-.002q2.298 0 3.564.187z"/></svg><svg width="24" height="28" viewBox="0 0 24 28" x="220" y="88"><path fill="#a9a9a9" d="M24 14q0 3.922-2.29 7.055t-5.913 4.336q-.422.08-.617-.108t-.195-.47v-3.296q0-1.516-.812-2.22.89-.093 1.602-.28t1.47-.61 1.265-1.038.828-1.64.32-2.353q0-1.89-1.234-3.22.578-1.42-.125-3.186-.44-.142-1.267.17t-1.437.69l-.594.374q-1.453-.406-3-.406t-3 .406q-.25-.172-.664-.422T7.033 7.18 5.69 6.97Q5 8.734 5.58 10.155q-1.234 1.328-1.234 3.22 0 1.327.32 2.343t.82 1.64 1.258 1.047 1.47.61 1.6.28q-.624.562-.765 1.61-.33.155-.704.233t-.89.078-1.024-.336-.867-.977q-.297-.5-.758-.812t-.773-.375l-.313-.047q-.327 0-.452.07t-.078.18.14.22.204.187l.11.078q.343.156.68.594t.49.796l.157.36q.204.593.69.96t1.046.47 1.086.108.867-.055l.358-.064q0 .594.008 1.39t.008.845q0 .282-.203.47t-.624.11q-3.625-1.204-5.914-4.337t-2.29-7.055q0-3.266 1.61-6.023T5.98 3.608 12 1.998t6.023 1.61 4.367 4.367 1.61 6.023z"/></svg><svg width="28" height="28" viewBox="0 0 28 28" x="264" y="88"><path fill="#a9a9a9" d="M14 0q2.844 0 5.437 1.11t4.47 2.983 2.983 4.47T28 13.998t-1.11 5.436-2.984 4.47-4.47 2.983T14 27.997t-5.437-1.11-4.47-2.983-2.983-4.47T0 14 1.11 8.56t2.984-4.47 4.47-2.983T14 0zm0 2q-2.97 0-5.64 1.406l3.03 3.03Q12.67 6 14 6t2.608.437l3.03-3.03Q16.97 2 14 2zM3.406 19.64l3.03-3.03Q6 15.33 6 14t.437-2.608l-3.03-3.03Q2 11.03 2 14t1.406 5.64zM14 26q2.97 0 5.64-1.406l-3.03-3.03Q15.33 22 14 22t-2.608-.437l-3.03 3.03Q11.03 26 14 26zm0-6q2.484 0 4.242-1.758T20 14t-1.758-4.242T14 8 9.758 9.758 8 14t1.758 4.242T14 20zm7.562-3.39l3.03 3.03Q26 16.968 26 14t-1.407-5.642l-3.03 3.03Q22 12.67 22 14t-.438 2.61z"/></svg><svg width="28" height="28" viewBox="0 0 28 28" x="308" y="88"><path fill="#a9a9a9" d="M26.703 8.094q-.156 3.687-5.187 10.172Q16.313 25 12.736 25q-2.22 0-3.75-4.11-.69-2.5-2.064-7.53Q5.797 9.266 4.47 9.266q-.282 0-1.985 1.188l-1.203-1.53q.375-.33 1.687-1.51T5 5.61q2.438-2.156 3.766-2.28 1.484-.142 2.39.866t1.267 3.18q.688 4.484 1.03 5.828.86 3.89 1.876 3.89.796 0 2.405-2.515 1.578-2.517 1.703-3.845.203-2.172-1.703-2.172-.89 0-1.89.406 1.874-6.142 7.17-5.97 3.923.125 3.688 5.094z"/></svg></svg>