<svg id="Layer_1" data-name="Layer 1" xmlns="http://www.w3.org/2000/svg" viewBox="0 0 129.06 50">
  <defs>
    <style>
      .cls-1 {
        isolation: isolate;
      }

      .cls-2 {
        fill: #fff;
      }
    </style>
  </defs>
  <title>silverhub-logo-mono</title>
  <g>
    <g id="Hub" class="cls-1">
      <path class="cls-2" d="M101,11.94h0.82v5.18h6.31V11.94h0.82V23.74H108.1V17.83h-6.31v5.91H101V11.94Z" transform="translate(0 0.01)"/>
      <path class="cls-2" d="M112.28,15.14h0.79v5.41c0,1.83.59,2.69,2,2.69,1,0,1.76-.54,2.78-1.76V15.14h0.79v8.6h-0.68l-0.07-1.43h-0.05A3.81,3.81,0,0,1,114.87,24c-1.77,0-2.6-1.07-2.6-3.3V15.14Z" transform="translate(0 0.01)"/>
      <path class="cls-2" d="M121.9,10.86h0.79v3.73l0,1.68a4.91,4.91,0,0,1,3-1.34c2.29,0,3.44,1.72,3.44,4.39,0,2.92-1.77,4.64-3.8,4.64a4.45,4.45,0,0,1-2.58-1h0l-0.09.81H121.9V10.86Zm3.33,12.4c1.74,0,3-1.61,3-3.94,0-2.11-.75-3.69-2.72-3.69A4.51,4.51,0,0,0,122.69,17v5.11A4.13,4.13,0,0,0,125.23,23.26Z" transform="translate(0 0.01)"/>
    </g>
    <path id="Silver" class="cls-2" d="M63.42,20.33A1.14,1.14,0,0,0,63,19.42a4.61,4.61,0,0,0-1-.64c-0.42-.19-0.87-0.39-1.36-0.6a7,7,0,0,1-1.36-.75,3.87,3.87,0,0,1-1-1.11,3.16,3.16,0,0,1-.42-1.7,3.7,3.7,0,0,1,.3-1.55,2.92,2.92,0,0,1,.86-1.1,3.71,3.71,0,0,1,1.32-.65,6.38,6.38,0,0,1,1.7-.21,10.85,10.85,0,0,1,2,.18,5.21,5.21,0,0,1,1.57.54l-0.76,2a4.32,4.32,0,0,0-1.16-.44A6.73,6.73,0,0,0,62,13.2a2.17,2.17,0,0,0-1.3.33,1.06,1.06,0,0,0-.45.89,1.1,1.1,0,0,0,.42.88,4.79,4.79,0,0,0,1,.65L63,16.57a7.35,7.35,0,0,1,1.36.76,3.94,3.94,0,0,1,1,1.1,3,3,0,0,1,.42,1.64,4,4,0,0,1-.33,1.69,3.22,3.22,0,0,1-.92,1.18,3.88,3.88,0,0,1-1.43.7,7.08,7.08,0,0,1-1.85.23A10,10,0,0,1,59,23.62a7.25,7.25,0,0,1-1.49-.49l0.78-2a4.66,4.66,0,0,0,.5.23,6.55,6.55,0,0,0,.7.23,7.92,7.92,0,0,0,.82.18,5.59,5.59,0,0,0,.89.07,3.13,3.13,0,0,0,1.65-.36A1.2,1.2,0,0,0,63.42,20.33Zm3.47-7.94a1.15,1.15,0,0,1,.38-0.87,1.48,1.48,0,0,1,1.05-.36,1.61,1.61,0,0,1,1.09.36,1.11,1.11,0,0,1,.42.87,1.05,1.05,0,0,1-.42.85,1.65,1.65,0,0,1-1.09.34,1.52,1.52,0,0,1-1.05-.34A1.09,1.09,0,0,1,66.9,12.39Zm0.34,2.47h2.3v8.76h-2.3V14.86h0Zm6.4,5.82a1.9,1.9,0,0,0,.16.89,0.55,0.55,0,0,0,.51.28,2.38,2.38,0,0,0,.41,0,2.44,2.44,0,0,0,.5-0.16l0.25,1.79a4.34,4.34,0,0,1-.87.28,5.14,5.14,0,0,1-1.2.14,2.27,2.27,0,0,1-1.54-.46,1.94,1.94,0,0,1-.53-1.53V11.36h2.3v9.32h0Zm5.6-1.23,0.3,1.35h0.09l0.25-1.38,1.5-4.55h2.48l-3.7,8.85h-1.4l-3.84-8.85h2.67Zm12.35,3.42a4.52,4.52,0,0,1-1.44.71,6.37,6.37,0,0,1-1.94.29,3.77,3.77,0,0,1-3.13-1.23,5.28,5.28,0,0,1-1-3.39,4.82,4.82,0,0,1,1.12-3.47,4.14,4.14,0,0,1,3.13-1.16,4.91,4.91,0,0,1,1.31.18,3.05,3.05,0,0,1,1.13.58,2.85,2.85,0,0,1,.8,1.09,4.23,4.23,0,0,1,.3,1.7,7.57,7.57,0,0,1,0,.79c0,0.28-.07.57-0.13,0.88H86.4A2.55,2.55,0,0,0,87,21.49a2.2,2.2,0,0,0,1.68.56,3.77,3.77,0,0,0,2.17-.67Zm-3.28-6.43A1.61,1.61,0,0,0,87,17a2.64,2.64,0,0,0-.52,1.43h3.27A2.2,2.2,0,0,0,89.44,17a1.3,1.3,0,0,0-1.14-.51h0ZM98.25,17a3,3,0,0,0-1-.19,1.64,1.64,0,0,0-1,.32,1.56,1.56,0,0,0-.55.83v5.66h-2.3V14.86h1.79L95.42,16h0.07a2.4,2.4,0,0,1,.81-1,2.08,2.08,0,0,1,1.2-.35,3.36,3.36,0,0,1,1,.19Z" transform="translate(0 0.01)"/>
    <g id="Intranet" class="cls-1">
      <path class="cls-2" d="M58.64,30.42h0.63v7.4H58.64v-7.4Z" transform="translate(0 0.01)"/>
      <path class="cls-2" d="M61.75,31.47v6.36H61.12v-7.4h0.64l4.64,6.27V30.42H67v7.4H66.41Z" transform="translate(0 0.01)"/>
      <path class="cls-2" d="M70.76,31H68.34V30.42h5.48V31H71.4v6.82H70.76V31Z" transform="translate(0 0.01)"/>
      <path class="cls-2" d="M77.39,34.76H75.76v3.06H75.13v-7.4h2.76a2.1,2.1,0,0,1,2.25,2.16,2,2,0,0,1-2.05,2.13l2.14,3.11H79.47ZM77.84,31H75.76v3.18h2.08A1.59,1.59,0,1,0,77.84,31Z" transform="translate(0 0.01)"/>
      <path class="cls-2" d="M86.35,36H82.43L81.7,37.82H81l3-7.4h0.79l3,7.4H87.08Zm-3.71-.58h3.49L84.38,31.1Z" transform="translate(0 0.01)"/>
      <path class="cls-2" d="M89.53,31.47v6.36H88.9v-7.4h0.64l4.64,6.27V30.42h0.63v7.4H94.19Z" transform="translate(0 0.01)"/>
      <path class="cls-2" d="M96.65,30.42h4.69V31H97.29v2.74h4v0.58h-4v2.93h4.06v0.58H96.65v-7.4Z" transform="translate(0 0.01)"/>
      <path class="cls-2" d="M104.8,31h-2.42V30.42h5.48V31h-2.42v6.82H104.8V31Z" transform="translate(0 0.01)"/>
    </g>
  </g>
  <path class="cls-2" d="M8.59,31.49a1.9,1.9,0,1,0,2,1.9A1.93,1.93,0,0,0,8.59,31.49ZM24.87,10A1.88,1.88,0,1,0,23,11.9,1.89,1.89,0,0,0,24.87,10Zm12.19,9a2,2,0,1,0-2-2A2,2,0,0,0,37.06,19ZM8.59,15.17a1.91,1.91,0,1,0,2,1.91A1.94,1.94,0,0,0,8.59,15.17ZM36.31,36.11a2,2,0,1,0-2-2A2,2,0,0,0,36.31,36.11Zm5.48-26-16-9.25a6.5,6.5,0,0,0-6.5,0l-16,9.25A6.5,6.5,0,0,0,0,15.74v18.5a6.5,6.5,0,0,0,3.25,5.63l16,9.25a6.5,6.5,0,0,0,6.5,0l16-9.25A6.5,6.5,0,0,0,45,34.24V15.74A6.5,6.5,0,0,0,41.79,10.11ZM28.64,25.74a5.62,5.62,0,0,1-.44,2.18l6,3.45a3.44,3.44,0,0,1,2.08-.71,3.47,3.47,0,1,1-3.47,3.47A3.44,3.44,0,0,1,33.62,32l-5.79-3.32a5.65,5.65,0,0,1-4,2.68v5.94a3.5,3.5,0,0,1-.54,6.93H23.1a3.51,3.51,0,0,1-3.5-3.36V40.71a3.45,3.45,0,0,1,3.35-3.5V31.39A5.66,5.66,0,0,1,18,28.45L11.73,32a3.31,3.31,0,0,1,.33,1.43A3.47,3.47,0,1,1,8.59,30a3.48,3.48,0,0,1,2.69,1.28l6.41-3.57A5.6,5.6,0,0,1,18,23L11.3,19.18a3.38,3.38,0,1,1,.76-2.11,3.33,3.33,0,0,1-.32,1.41l6.74,3.86a5.64,5.64,0,0,1,4.47-2.26V13.41a3.42,3.42,0,1,1,.84-0.1v6.84a5.65,5.65,0,0,1,3.66,2.12L34,18.64a3.43,3.43,0,0,1-.39-1.56,3.52,3.52,0,1,1,.84,2.24L27.9,23A5.61,5.61,0,0,1,28.64,25.74ZM23,21.6a4.15,4.15,0,1,0,4.15,4.15A4.15,4.15,0,0,0,23,21.6Zm0,17.11h0a1.94,1.94,0,0,0-1.9,2v0.1a2,2,0,0,0,4-.17,2,2,0,0,0-2-1.92H23Z" transform="translate(0 0.01)"/>
</svg>
