<?xml version="1.0" encoding="utf-8"?>
<!-- Generated by IcoMoon.io -->
<!DOCTYPE svg PUBLIC "-//W3C//DTD SVG 1.1//EN" "http://www.w3.org/Graphics/SVG/1.1/DTD/svg11.dtd">
<svg version="1.1" xmlns="http://www.w3.org/2000/svg" xmlns:xlink="http://www.w3.org/1999/xlink" width="380" height="116" viewBox="0 0 380 116">
<svg id="icon-menu" width="28" height="28" viewBox="0 0 28 28" x="0" y="0">
<path fill="#fff" d="M22.96 12.6h-17.92c-0.773 0-0.84 0.626-0.84 1.4s0.067 1.4 0.84 1.4h17.92c0.773 0 0.84-0.626 0.84-1.4s-0.067-1.4-0.84-1.4zM22.96 18.2h-17.92c-0.773 0-0.84 0.626-0.84 1.4s0.067 1.4 0.84 1.4h17.92c0.773 0 0.84-0.626 0.84-1.4s-0.067-1.4-0.84-1.4zM5.040 9.8h17.92c0.773 0 0.84-0.626 0.84-1.4s-0.067-1.4-0.84-1.4h-17.92c-0.773 0-0.84 0.626-0.84 1.4s0.067 1.4 0.84 1.4z"></path>
</svg>
<svg id="icon-warning" width="28" height="28" viewBox="0 0 28 28" x="0" y="44">
<path fill="#fff" d="M14 2.625c-3.038 0-5.895 1.183-8.043 3.332s-3.332 5.005-3.332 8.043c0 3.038 1.183 5.895 3.332 8.043s5.005 3.332 8.043 3.332c3.038 0 5.895-1.183 8.043-3.332s3.332-5.005 3.332-8.043c0-3.038-1.183-5.895-3.332-8.043s-5.005-3.332-8.043-3.332zM14 0v0c7.732 0 14 6.268 14 14s-6.268 14-14 14c-7.732 0-14-6.268-14-14s6.268-14 14-14zM12.25 19.25h3.5v3.5h-3.5zM12.25 5.25h3.5v10.5h-3.5z"></path>
</svg>
<svg id="icon-search" width="26" height="28" viewBox="0 0 26 28" x="0" y="88">
<path fill="#a9a9a9" d="M18 13q0-2.891-2.055-4.945t-4.945-2.055-4.945 2.055-2.055 4.945 2.055 4.945 4.945 2.055 4.945-2.055 2.055-4.945zM26 26q0 0.812-0.594 1.406t-1.406 0.594q-0.844 0-1.406-0.594l-5.359-5.344q-2.797 1.937-6.234 1.937-2.234 0-4.273-0.867t-3.516-2.344-2.344-3.516-0.867-4.273 0.867-4.273 2.344-3.516 3.516-2.344 4.273-0.867 4.273 0.867 3.516 2.344 2.344 3.516 0.867 4.273q0 3.437-1.937 6.234l5.359 5.359q0.578 0.578 0.578 1.406z"></path>
</svg>
<svg id="icon-down-arrow" width="28" height="28" viewBox="0 0 28 28" x="44" y="88">
<path fill="#a9a9a9" d="M26.297 12.625l-11.594 11.578q-0.297 0.297-0.703 0.297t-0.703-0.297l-11.594-11.578q-0.297-0.297-0.297-0.711t0.297-0.711l2.594-2.578q0.297-0.297 0.703-0.297t0.703 0.297l8.297 8.297 8.297-8.297q0.297-0.297 0.703-0.297t0.703 0.297l2.594 2.578q0.297 0.297 0.297 0.711t-0.297 0.711z"></path>
</svg>
<svg id="icon-linkedin" width="24" height="28" viewBox="0 0 24 28" x="88" y="88">
<path fill="#a9a9a9" d="M3.703 22.094h3.609v-10.844h-3.609v10.844zM7.547 7.906q-0.016-0.812-0.562-1.344t-1.453-0.531-1.477 0.531-0.57 1.344q0 0.797 0.555 1.336t1.445 0.539h0.016q0.922 0 1.484-0.539t0.562-1.336zM16.688 22.094h3.609v-6.219q0-2.406-1.141-3.641t-3.016-1.234q-2.125 0-3.266 1.828h0.031v-1.578h-3.609q0.047 1.031 0 10.844h3.609v-6.062q0-0.594 0.109-0.875 0.234-0.547 0.703-0.93t1.156-0.383q1.813 0 1.813 2.453v5.797zM24 6.5v15q0 1.859-1.32 3.18t-3.18 1.32h-15q-1.859 0-3.18-1.32t-1.32-3.18v-15q0-1.859 1.32-3.18t3.18-1.32h15q1.859 0 3.18 1.32t1.32 3.18z"></path>
</svg>
<svg id="icon-twitter" width="26" height="28" viewBox="0 0 26 28" x="132" y="88">
<path fill="#a9a9a9" d="M25.312 6.375q-1.047 1.531-2.531 2.609 0.016 0.219 0.016 0.656 0 2.031-0.594 4.055t-1.805 3.883-2.883 3.289-4.031 2.281-5.047 0.852q-4.234 0-7.75-2.266 0.547 0.063 1.219 0.063 3.516 0 6.266-2.156-1.641-0.031-2.938-1.008t-1.781-2.492q0.516 0.078 0.953 0.078 0.672 0 1.328-0.172-1.75-0.359-2.898-1.742t-1.148-3.211v-0.063q1.062 0.594 2.281 0.641-1.031-0.688-1.641-1.797t-0.609-2.406q0-1.375 0.688-2.547 1.891 2.328 4.602 3.727t5.805 1.555q-0.125-0.594-0.125-1.156 0-2.094 1.477-3.57t3.57-1.477q2.188 0 3.687 1.594 1.703-0.328 3.203-1.219-0.578 1.797-2.219 2.781 1.453-0.156 2.906-0.781z"></path>
</svg>
<svg id="icon-facebook" width="16" height="28" viewBox="0 0 16 28" x="176" y="88">
<path fill="#a9a9a9" d="M14.984 0.187v4.125h-2.453q-1.344 0-1.813 0.562t-0.469 1.687v2.953h4.578l-0.609 4.625h-3.969v11.859h-4.781v-11.859h-3.984v-4.625h3.984v-3.406q0-2.906 1.625-4.508t4.328-1.602q2.297 0 3.563 0.187z"></path>
</svg>
<svg id="icon-github" width="24" height="28" viewBox="0 0 24 28" x="220" y="88">
<path fill="#a9a9a9" d="M24 14q0 3.922-2.289 7.055t-5.914 4.336q-0.422 0.078-0.617-0.109t-0.195-0.469v-3.297q0-1.516-0.812-2.219 0.891-0.094 1.602-0.281t1.469-0.609 1.266-1.039 0.828-1.641 0.32-2.352q0-1.891-1.234-3.219 0.578-1.422-0.125-3.187-0.438-0.141-1.266 0.172t-1.437 0.688l-0.594 0.375q-1.453-0.406-3-0.406t-3 0.406q-0.25-0.172-0.664-0.422t-1.305-0.602-1.344-0.211q-0.688 1.766-0.109 3.187-1.234 1.328-1.234 3.219 0 1.328 0.32 2.344t0.82 1.641 1.258 1.047 1.469 0.609 1.602 0.281q-0.625 0.562-0.766 1.609-0.328 0.156-0.703 0.234t-0.891 0.078-1.023-0.336-0.867-0.977q-0.297-0.5-0.758-0.812t-0.773-0.375l-0.313-0.047q-0.328 0-0.453 0.070t-0.078 0.18 0.141 0.219 0.203 0.187l0.109 0.078q0.344 0.156 0.68 0.594t0.492 0.797l0.156 0.359q0.203 0.594 0.688 0.961t1.047 0.469 1.086 0.109 0.867-0.055l0.359-0.063q0 0.594 0.008 1.391t0.008 0.844q0 0.281-0.203 0.469t-0.625 0.109q-3.625-1.203-5.914-4.336t-2.289-7.055q0-3.266 1.609-6.023t4.367-4.367 6.023-1.609 6.023 1.609 4.367 4.367 1.609 6.023z"></path>
</svg>
<svg id="icon-help" width="28" height="28" viewBox="0 0 28 28" x="264" y="88">
<path fill="#a9a9a9" d="M14 0q2.844 0 5.437 1.109t4.469 2.984 2.984 4.469 1.109 5.437-1.109 5.437-2.984 4.469-4.469 2.984-5.437 1.109-5.437-1.109-4.469-2.984-2.984-4.469-1.109-5.437 1.109-5.437 2.984-4.469 4.469-2.984 5.437-1.109zM14 2q-2.969 0-5.641 1.406l3.031 3.031q1.281-0.438 2.609-0.438t2.609 0.438l3.031-3.031q-2.672-1.406-5.641-1.406zM3.406 19.641l3.031-3.031q-0.438-1.281-0.438-2.609t0.438-2.609l-3.031-3.031q-1.406 2.672-1.406 5.641t1.406 5.641zM14 26q2.969 0 5.641-1.406l-3.031-3.031q-1.281 0.438-2.609 0.438t-2.609-0.438l-3.031 3.031q2.672 1.406 5.641 1.406zM14 20q2.484 0 4.242-1.758t1.758-4.242-1.758-4.242-4.242-1.758-4.242 1.758-1.758 4.242 1.758 4.242 4.242 1.758zM21.562 16.609l3.031 3.031q1.406-2.672 1.406-5.641t-1.406-5.641l-3.031 3.031q0.438 1.281 0.438 2.609t-0.438 2.609z"></path>
</svg>
<svg id="icon-vimeo" width="28" height="28" viewBox="0 0 28 28" x="308" y="88">
<path fill="#a9a9a9" d="M26.703 8.094q-0.156 3.687-5.187 10.172-5.203 6.734-8.781 6.734-2.219 0-3.75-4.109-0.688-2.5-2.063-7.531-1.125-4.094-2.453-4.094-0.281 0-1.984 1.188l-1.203-1.531q0.375-0.328 1.687-1.508t2.031-1.805q2.438-2.156 3.766-2.281 1.484-0.141 2.391 0.867t1.266 3.18q0.688 4.484 1.031 5.828 0.859 3.891 1.875 3.891 0.797 0 2.406-2.516 1.578-2.516 1.703-3.844 0.203-2.172-1.703-2.172-0.891 0-1.891 0.406 1.875-6.141 7.172-5.969 3.922 0.125 3.687 5.094z"></path>
</svg>
</svg>
